<svg xmlns="http://www.w3.org/2000/svg" width="103.425" height="103.5" version="1.0">
  <path d="m0 0 41.28-41.52L82.74 0 41.28 41.28 0 0" style="fill:#da251d;fill-opacity:1;fill-rule:evenodd;stroke:none" transform="matrix(1.25 0 0 -1.25 0 51.6)"/>
  <path d="M457.20713 686.0979h21.3v-2.4h-21.3v2.4z" style="fill:#1f1a17;fill-opacity:1;fill-rule:nonzero;stroke:none" transform="translate(-414.90713 -639.8979)"/>
  <path d="m0 0 .72.24.72.48.48 1.68.24 1.92v.72l.96-1.92.24-2.16V-1.2l-.72-1.92 1.44.72.72 1.2.72 1.44L6-1.44l.48-1.44L6-4.8 5.28-6l-.96-1.44 1.92.48.72.72.48.72v.48L7.2-8.4l-.72-2.64c-1.982-2.488-3.616-4.102-6.96-3.84l.48.24.96.72 1.44 1.44 1.2 2.16-2.4-.96H.24l.72.48.72.96.48 1.44V-6l-.48-1.2-1.44-.96-.96-.72L-.48-6l-.72 2.16-.72 1.44-1.2.96.24-1.2-.24-.96-.48-1.2-.48-1.44v-1.2l.24-1.44-.96.48-.72.48-.48.72-.72 1.2v-2.16l.24-1.2 1.44-1.92-1.2.24h-.72l-.72.48-.96.72.96-2.4 1.44-1.68 1.68-.72 1.68-.24H-4.8l-1.68.24-2.64.72-1.68 1.44-1.2 1.68-.96 3.84-.72 3.12L-12-5.76l.96-.72 1.68-.24-.96 1.44-.48 1.44v3.36l-.24 1.92.96-.96.48-.72.72-.96 1.2-.72c-1.763 4.161.382 4.681-.48 7.44C-4.749 4.159-6.853 3.17-5.04.24c2.658 4.905.074 6.163 1.92 10.56l.72-2.4L0 3.12l.24-1.44L0 0" style="fill:#1f1a17;fill-opacity:1;fill-rule:evenodd;stroke:none" transform="matrix(1.25 0 0 -1.25 56.1 23.1)"/>
  <path d="m0 0 36.24-36L72.18 0 36.24 36 0 0z" style="fill:none;stroke:#1f1a17;stroke-width:.71899998;stroke-linecap:round;stroke-linejoin:round;stroke-miterlimit:10;stroke-dasharray:none;stroke-opacity:1" transform="matrix(1.25 0 0 -1.25 6.6 51.6)"/>
  <path d="M0 0v1.2l.48.72 2.16 2.16.48.96v.24l-.24.48h-.24L2.4 6l-.24-.24h-.24l-.24-.48v-.96H0c.083 3.158 1.722 3.664 4.32 2.64 1.87-2.916-.479-3.54-2.16-5.28H4.8V0H0" style="fill:#1f1a17;fill-opacity:1;fill-rule:evenodd;stroke:none" transform="matrix(1.25 0 0 -1.25 48.6 90.3)"/>
  <path d="M0 0v1.2l.48.72 2.16 2.16.48.96v.24l-.24.48h-.24L2.4 6l-.24-.24h-.24l-.24-.48v-.96H0c.083 3.158 1.722 3.664 4.32 2.64 1.87-2.916-.479-3.54-2.16-5.28H4.8V0H0" style="fill:none;stroke:#1f1a17;stroke-width:.06;stroke-linecap:round;stroke-linejoin:round;stroke-miterlimit:10;stroke-dasharray:none;stroke-opacity:1" transform="matrix(1.25 0 0 -1.25 48.6 90.3)"/>
</svg>
